PathFileType	4	(X/Y/Z)	C:/Users/beibeiliu/ov580/test_trc/User2\sequence.24_training_dense_left.trc
DataRate	CameraRate	NumFrames	NumMarkers	Units	OrigDataRate	OrigDataStartFrame	OrigNumFrames
120	120	7	19	mm	120	170	451
Frame#	Time	ThumbCMC			ThumbMCP			ThumbIP			ThumbTip			IndexMCP			IndexPIP			IndexTip			MiddleMCP			MiddlePIP			MiddleTip			RingMCP			RingPIP			RingTip			PinkyMCP			PinkyPIP			PinkyTip			BackHand1			BackHand2			BackHand3	
		X0	Y0	Z0	X1	Y1	Z1	X2	Y2	Z2	X3	Y3	Z3	X4	Y4	Z4	X5	Y5	Z5	X6	Y6	Z6	X7	Y7	Z7	X8	Y8	Z8	X9	Y9	Z9	X10	Y10	Z10	X11	Y11	Z11	X12	Y12	Z12	X13	Y13	Z13	X14	Y14	Z14	X15	Y15	Z15	X16	Y16	Z16	X17	Y17	Z17	X18	Y18	Z18	
169	1.40833	-95.5267	-63.4706	124.217	-79.4787	-76.0639	93.2233	-80.0841	-88.2608	58.9652	-88.479	-99.192	38.5614	-88.8163	-41.1179	42.5924	-81.22	-38.4634	15.0641	-77.3123	-39.1158	-10.7971	-109.383	-46.8878	26.6212	-94.3379	-45.5677	-2.81925	-88.0932	-45.0331	-30.3244	-121.572	-68.3839	25.6727	-107.36	-96.1011	11.0461	-106.59	-117.26	45.1921	-134.8	-82.7155	35.9631	-120.823	-112.072	29.0432	-122.988	-124.619	57.5888	-149.779	-53.1668	77.9714	-162.099	-46.1153	108.045	-125.435	-37.532	101.047	
170	1.41667	-95.2993	-66.0349	120.897	-74.6774	-80.3007	94.465	-77.0009	-90.4687	61.3044	-92.8669	-98.3363	34.9229	-86.3582	-42.0533	42.0946	-79.7734	-39.1656	18.178	-74.9914	-37.6425	-9.97052	-105.796	-44.6203	26.3859	-90.9417	-42.6067	-0.565516	-88.0366	-43.4352	-29.4267	-120.626	-67.5812	20.8521	-106.094	-95.0154	12.4454	-107.629	-114.284	39.355	-140.282	-80.9955	33.6938	-122.555	-107.307	28.2704	-127.142	-120.748	60.0615	-151.59	-52.8239	77.6957	-163.033	-45.9781	107.644	-123.826	-38.6439	104.048	
171	1.425	-95.8477	-69.0937	123.449	-79.5368	-82.8048	94.6359	-83.2794	-90.3412	58.5746	-93.7442	-96.7821	38.0255	-83.4303	-41.92	43.8938	-79.1829	-39.2953	19.8414	-72.7375	-34.7951	-8.34596	-103.164	-42.4396	29.4407	-91.7137	-41.5642	4.62092	-82.3162	-37.5916	-27.9007	-119.119	-62.9475	25.3456	-109.283	-87.6457	9.57599	-111.076	-113.52	40.4275	-141.503	-77.6088	34.6151	-124.989	-107.459	27.4107	-129.244	-118.378	55.6565	-148.798	-49.5222	75.071	-160.878	-43.3779	111.519	-118.471	-40.382	107.729	
172	1.43333	-97.3539	-72.1974	123.311	-77.1192	-86.0877	94.1499	-83.4095	-90.075	57.2634	-94.0014	-96.5129	32.4399	-83.2369	-42.4502	50.3809	-77.1122	-36.6766	22.9521	-67.9405	-32.3182	-1.99707	-103.623	-41.6522	32.5738	-88.2009	-38.3802	5.11677	-79.115	-33.2841	-27.6008	-116.659	-59.5199	23.5653	-108.922	-87.1997	10.5953	-115.602	-110.212	36.262	-143.476	-74.2044	32.1933	-128.583	-105.447	27.4992	-136.325	-116.835	59.2073	-143.903	-45.6996	78.5462	-159.693	-41.855	109.253	-122.49	-40.5661	107.943	
173	1.44167	-100.795	-73.0624	120.958	-83.6304	-85.6706	91.78	-83.0755	-91.2339	53.6103	-97.9685	-93.5408	33.2103	-84.4523	-41.6693	50.5478	-73.2614	-33.4553	21.3577	-70.4043	-29.5607	-2.56407	-101.328	-38.9064	33.5101	-86.1796	-34.363	4.0777	-74.5498	-29.0112	-25.0153	-118.576	-56.2954	27.513	-112.891	-81.7692	7.66187	-113.258	-107.309	36.5527	-140.791	-69.6297	31.608	-130.281	-101.319	27.0895	-139.377	-113.076	56.921	-143.703	-41.4061	82.2078	-156.246	-41.2669	108.908	-115.732	-39.4757	108.025	
174	1.45	-101.069	-73.204	120.022	-84.9812	-83.4721	91.2755	-83.889	-89.173	52.9526	-101.42	-88.9512	34.1282	-80.914	-39.4851	53.7581	-74.5151	-31.8327	23.176	-65.719	-25.3549	-3.25155	-100.148	-35.0975	34.2334	-86.1038	-30.4167	3.88958	-77.0397	-25.0025	-20.7001	-121.083	-52.1095	23.8111	-109.064	-78.5577	10.2795	-116.492	-103.225	34.6344	-142.497	-66.3539	30.5645	-130.428	-96.1931	25.325	-139.388	-108.26	54.9323	-146.64	-38.4317	78.4997	-158.619	-37.9947	110.148	-117.872	-38.8871	109.661	
175	1.45833	-103.162	-73.0771	122.815	-82.1986	-83.5511	90.3156	-86.9208	-86.7696	54.8677	-98.1966	-88.6127	29.1615	-84.4005	-36.8024	51.3381	-70.8457	-29.185	29.6162	-61.6979	-21.8272	1.61098	-99.9266	-30.6892	34.3674	-88.0257	-25.9357	9.1819	-72.838	-19.2243	-21.2891	-119.64	-48.1759	25.6267	-108.386	-73.7729	10.0341	-114.82	-98.6285	31.2729	-142.919	-62.8434	28.6434	-132.585	-92.9064	23.6079	-138.785	-106.088	53.7999	-147.251	-38.8851	83.9344	-157.209	-37.8387	111.214	-119.526	-38.2579	110.962	
